<svg width="112" height="28" viewBox="0 0 112 28" fill="none" xmlns="http://www.w3.org/2000/svg">
<path fill-rule="evenodd" clip-rule="evenodd" d="M5.72874 2.64801L9.13353 0.368276C9.4702 0.142866 9.90961 0.142866 10.2463 0.368276L13.6511 2.64801C13.9283 2.83364 14.0947 3.14531 14.0947 3.47895V6.57926C14.0947 6.93745 13.9031 7.26832 13.5925 7.44662L10.1877 9.40062C9.8794 9.57752 9.5004 9.57752 9.19214 9.40062L5.78735 7.44662C5.47669 7.26832 5.28511 6.93745 5.28511 6.57926V3.47895C5.28511 3.14531 5.45151 2.83364 5.72874 2.64801ZM20.5857 0.368276L17.1809 2.64801C16.9036 2.83364 16.7372 3.14531 16.7372 3.47895V6.57926C16.7372 6.93745 16.9288 7.26832 17.2395 7.44662L20.6443 9.40062C20.9525 9.57752 21.3315 9.57752 21.6398 9.40062L25.0446 7.44662C25.3552 7.26832 25.5468 6.93745 25.5468 6.57926V3.47895C25.5468 3.14531 25.3804 2.83364 25.1032 2.64801L21.6984 0.368276C21.3617 0.142866 20.9223 0.142866 20.5857 0.368276ZM15.3005 9.17782L11.8958 11.4576C11.6185 11.6432 11.4521 11.9549 11.4521 12.2885V15.3888C11.4521 15.747 11.6437 16.0778 11.9544 16.2561L15.3592 18.2102C15.6674 18.3871 16.0464 18.3871 16.3547 18.2102L19.7595 16.2561C20.0701 16.0778 20.2617 15.747 20.2617 15.3888V12.2885C20.2617 11.9549 20.0953 11.6432 19.8181 11.4576L16.4133 9.17782C16.0766 8.95242 15.6372 8.95242 15.3005 9.17782ZM3.84842 9.17782L0.443633 11.4576C0.166397 11.6432 0 11.9549 0 12.2885V15.3888C0 15.747 0.191576 16.0778 0.502237 16.2561L3.90703 18.2102C4.21529 18.3871 4.59429 18.3871 4.90255 18.2102L8.30734 16.2561C8.618 16.0778 8.80958 15.747 8.80958 15.3888V12.2885C8.80958 11.9549 8.64318 11.6432 8.36595 11.4576L4.96116 9.17782C4.62449 8.95242 4.18509 8.95242 3.84842 9.17782ZM5.72874 20.2671L9.13353 17.9874C9.4702 17.762 9.90961 17.762 10.2463 17.9874L13.6511 20.2671C13.9283 20.4528 14.0947 20.7644 14.0947 21.0981V24.1984C14.0947 24.5566 13.9031 24.8874 13.5925 25.0657L10.1877 27.0197C9.8794 27.1967 9.5004 27.1967 9.19214 27.0197L5.78735 25.0657C5.47669 24.8874 5.28511 24.5566 5.28511 24.1984V21.0981C5.28511 20.7644 5.45151 20.4528 5.72874 20.2671ZM20.5857 17.9874L17.1809 20.2671C16.9036 20.4528 16.7372 20.7644 16.7372 21.0981V24.1984C16.7372 24.5566 16.9288 24.8874 17.2395 25.0657L20.6443 27.0197C20.9525 27.1967 21.3315 27.1967 21.6398 27.0197L25.0446 25.0657C25.3552 24.8874 25.5468 24.5566 25.5468 24.1984V21.0981C25.5468 20.7644 25.3804 20.4528 25.1032 20.2671L21.6984 17.9874C21.3617 17.762 20.9223 17.762 20.5857 17.9874ZM23.3479 11.4576L26.7527 9.17782C27.0893 8.95242 27.5287 8.95242 27.8654 9.17782L31.2702 11.4576C31.5474 11.6432 31.7138 11.9549 31.7138 12.2885V15.3888C31.7138 15.747 31.5223 16.0778 31.2116 16.2561L27.8068 18.2102C27.4985 18.3871 27.1195 18.3871 26.8113 18.2102L23.4065 16.2561C23.0958 16.0778 22.9042 15.747 22.9042 15.3888V12.2885C22.9042 11.9549 23.0706 11.6432 23.3479 11.4576Z" fill="url(#paint0_linear_8687_22941)"/>
<path d="M48.478 15.9974V13.5134H50.656C51.148 13.5134 51.52 13.3934 51.772 13.1534C52.036 12.9134 52.168 12.5954 52.168 12.1994C52.168 11.8034 52.036 11.4854 51.772 11.2454C51.52 11.0054 51.148 10.8854 50.656 10.8854H48.478V8.29337H51.232C52.12 8.29337 52.9 8.45537 53.572 8.77937C54.244 9.10337 54.772 9.55337 55.156 10.1294C55.54 10.7054 55.732 11.3774 55.732 12.1454C55.732 12.9134 55.534 13.5854 55.138 14.1614C54.754 14.7374 54.214 15.1874 53.518 15.5114C52.822 15.8354 52 15.9974 51.052 15.9974H48.478ZM45.562 21.1094V8.29337H49.162V21.1094H45.562ZM52.474 21.1094L48.982 15.6374L52.222 14.9354L56.56 21.1094H52.474ZM65.0626 21.1094L61.6786 15.4034H61.3726L56.5666 8.29337H60.8506L64.1266 13.6754H64.4326L69.2926 21.1094H65.0626ZM56.3326 21.1094L60.9406 14.2514L63.8566 15.4754L60.4546 21.1094H56.3326ZM64.4866 15.1514L61.5706 13.9274L64.9366 8.29337H69.0586L64.4866 15.1514ZM80.0406 21.3254C79.0566 21.3254 78.1386 21.1634 77.2866 20.8394C76.4466 20.5034 75.7086 20.0354 75.0726 19.4354C74.4366 18.8354 73.9386 18.1334 73.5786 17.3294C73.2306 16.5134 73.0566 15.6314 73.0566 14.6834C73.0566 13.7234 73.2306 12.8414 73.5786 12.0374C73.9386 11.2334 74.4306 10.5374 75.0546 9.94937C75.6906 9.36137 76.4286 8.90537 77.2686 8.58137C78.1086 8.24537 79.0206 8.07737 80.0046 8.07737C81.0006 8.07737 81.9126 8.23337 82.7406 8.54537C83.5686 8.85737 84.2886 9.28937 84.9006 9.84137L82.5066 12.2534C82.2186 11.9414 81.8646 11.6954 81.4446 11.5154C81.0366 11.3354 80.5566 11.2454 80.0046 11.2454C79.5246 11.2454 79.0806 11.3234 78.6726 11.4794C78.2766 11.6354 77.9346 11.8634 77.6466 12.1634C77.3586 12.4634 77.1306 12.8294 76.9626 13.2614C76.8066 13.6814 76.7286 14.1554 76.7286 14.6834C76.7286 15.2234 76.8066 15.7094 76.9626 16.1414C77.1306 16.5614 77.3586 16.9214 77.6466 17.2214C77.9346 17.5214 78.2766 17.7554 78.6726 17.9234C79.0806 18.0794 79.5246 18.1574 80.0046 18.1574C80.5446 18.1574 81.0246 18.0734 81.4446 17.9054C81.8766 17.7374 82.2486 17.4914 82.5606 17.1674L84.9726 19.5794C84.3366 20.1314 83.6226 20.5634 82.8306 20.8754C82.0386 21.1754 81.1086 21.3254 80.0406 21.3254ZM90.31 21.3254C89.338 21.3254 88.468 21.1274 87.7 20.7314C86.944 20.3234 86.344 19.7654 85.9 19.0574C85.468 18.3494 85.252 17.5514 85.252 16.6634C85.252 15.7754 85.468 14.9834 85.9 14.2874C86.332 13.5914 86.926 13.0454 87.682 12.6494C88.45 12.2414 89.32 12.0374 90.292 12.0374C91.264 12.0374 92.128 12.2414 92.884 12.6494C93.64 13.0454 94.234 13.5914 94.666 14.2874C95.11 14.9834 95.332 15.7754 95.332 16.6634C95.332 17.5514 95.116 18.3494 94.684 19.0574C94.252 19.7654 93.658 20.3234 92.902 20.7314C92.146 21.1274 91.282 21.3254 90.31 21.3254ZM90.292 18.2294C90.592 18.2294 90.85 18.1694 91.066 18.0494C91.294 17.9174 91.468 17.7374 91.588 17.5094C91.708 17.2694 91.768 16.9934 91.768 16.6814C91.768 16.3694 91.702 16.0994 91.57 15.8714C91.45 15.6314 91.282 15.4514 91.066 15.3314C90.85 15.1994 90.592 15.1334 90.292 15.1334C90.004 15.1334 89.746 15.1994 89.518 15.3314C89.302 15.4634 89.128 15.6494 88.996 15.8894C88.876 16.1174 88.816 16.3874 88.816 16.6994C88.816 16.9994 88.876 17.2694 88.996 17.5094C89.128 17.7374 89.302 17.9174 89.518 18.0494C89.746 18.1694 90.004 18.2294 90.292 18.2294ZM96.41 21.1094V12.2534H99.938V21.1094H96.41ZM98.174 11.4254C97.658 11.4254 97.226 11.2514 96.878 10.9034C96.542 10.5434 96.374 10.1054 96.374 9.58937C96.374 9.07337 96.542 8.64137 96.878 8.29337C97.226 7.93337 97.658 7.75337 98.174 7.75337C98.702 7.75337 99.134 7.93337 99.47 8.29337C99.806 8.64137 99.974 9.07337 99.974 9.58937C99.974 10.1054 99.806 10.5434 99.47 10.9034C99.134 11.2514 98.702 11.4254 98.174 11.4254ZM107.248 21.1094V16.1414C107.248 15.7934 107.146 15.5294 106.942 15.3494C106.75 15.1574 106.504 15.0614 106.204 15.0614C106 15.0614 105.814 15.1034 105.646 15.1874C105.49 15.2714 105.364 15.3974 105.268 15.5654C105.184 15.7214 105.142 15.9134 105.142 16.1414L103.774 15.5294C103.774 14.8094 103.93 14.1914 104.242 13.6754C104.566 13.1594 105.004 12.7634 105.556 12.4874C106.12 12.2114 106.756 12.0734 107.464 12.0734C108.1 12.0734 108.664 12.2174 109.156 12.5054C109.66 12.7814 110.056 13.1654 110.344 13.6574C110.632 14.1374 110.776 14.6954 110.776 15.3314V21.1094H107.248ZM101.614 21.1094V12.2534H105.142V21.1094H101.614Z" fill="white"/>
<defs>
<linearGradient id="paint0_linear_8687_22941" x1="24.2281" y1="0.0224754" x2="-8.7597" y2="31.2975" gradientUnits="userSpaceOnUse">
<stop stop-color="#5E2FF4"/>
<stop offset="0.174673" stop-color="#8CA7FF"/>
<stop offset="0.395416" stop-color="#E4DAFF"/>
<stop offset="0.844385" stop-color="#C3B1FE"/>
<stop offset="1" stop-color="#5E2FF4"/>
</linearGradient>
</defs>
</svg>
